<svg xmlns="http://www.w3.org/2000/svg" viewBox="0 0 320 180">
  <g fill="#789b96" opacity=".6">
    <circle cx="12" cy="23" r="2"/><circle cx="43" cy="9" r="1.5"/><circle cx="77" cy="42" r="2.5"/>
    <circle cx="112" cy="18" r="1"/><circle cx="148" cy="53" r="2"/><circle cx="191" cy="27" r="1.5"/>
    <circle cx="232" cy="14" r="2.5"/><circle cx="278" cy="48" r="1"/><circle cx="309" cy="31" r="2"/>
    <circle cx="25" cy="81" r="1.5"/><circle cx="62" cy="116" r="2"/><circle cx="98" cy="73" r="1"/>
    <circle cx="133" cy="137" r="2.5"/><circle cx="174" cy="91" r="1.5"/><circle cx="219" cy="124" r="2"/>
    <circle cx="259" cy="78" r="1"/><circle cx="297" cy="143" r="2.5"/><circle cx="17" cy="164" r="2"/>
    <path d="M31 47l14-3 2 5-15 2zM88 145l21-4 1 4-19 4zM154 9l17 2-1 3-18-1zM203 67l24-5 2 4-25 6zM267 164l18-3 1 5-17 2zM4 104l18-5 1 3-17 6z"/>
    <path d="M53 68l4-11 3 1-3 12zM120 91l6-15 4 2-7 14zM184 151l5-13 3 1-4 14zM287 96l5-17 4 2-6 16z"/>
  </g>
</svg>
